<svg xmlns="http://www.w3.org/2000/svg" width="760" height="421.5" viewBox="0 0 760 421.5"><defs><style>.a{font-size:10px;fill:#f3f3f3;font-family:RedHatText-Regular,Red Hat Text}.b,.f,.j,.k,.o,.p,.r{fill:none}.c{fill:#e8e8e8}.d{font-size:14px}.d,.g,.h,.m,.n{fill:#151515}.d,.m{font-family:RedHatText-Bold,Red Hat Text;font-weight:700}.e,.h,.m,.n{font-size:11px}.e{font-family:LiberationMono,Liberation Mono;font-weight:400;letter-spacing:0}.f{stroke:#151515}.f,.i,.j,.k,.o,.p,.r{stroke-linecap:round;stroke-linejoin:round}.h{font-family:RedHatText-Medium,Red Hat Text;font-weight:500}.i,.l{fill:#fff}.i,.j,.k{stroke:#5b5b5b}.i,.k{stroke-width:1.5px}.j{stroke-width:2px}.n{font-family:RedHatText-Italic,Red Hat Text;font-style:italic}.o,.p,.r{stroke:#06c}.p{stroke-dasharray:3.009 3.009}.q{fill:#06c}.r{stroke-dasharray:2.984 2.984}</style></defs><title>cross-datacenter-arch</title><g><text class="a" transform="translate(679.802 404.517)">70_RHSSO_0320</text><rect width="760" height="40" y="381.5" class="b"/></g><rect width="285" height="282.5" x="475" y="99" class="c"/><rect width="285" height="282.5" y="99" class="c"/><text class="d" transform="translate(20 362.23)">Datacenter <tspan x="81.646" y="0" class="e">(site1)</tspan></text><g><line x1="64.236" x2="64.236" y1="169" y2="271.824" class="f"/><polygon points="59.25 270.365 64.236 279 69.223 270.365 59.25 270.365" class="g"/></g><g><line x1="142.5" x2="142.5" y1="168.695" y2="193.824" class="f"/><polygon points="137.514 192.365 142.5 201 147.486 192.365 137.514 192.365" class="g"/></g><g><polyline points="372.5 63.25 372.5 78.25 142.568 78.25 142.568 109.574" class="f"/><polygon points="137.581 108.115 142.568 116.75 147.554 108.115 137.581 108.115" class="g"/></g><g><polyline points="387.5 63.25 387.5 78.25 617.432 78.25 617.432 109.574" class="f"/><polygon points="612.446 108.115 617.432 116.75 622.419 108.115 612.446 108.115" class="g"/></g><g><text class="h" transform="translate(343.469 55.095)">Load balancer</text><g><rect width="55" height="13.75" x="352.5" y="24.75" class="i"/><line x1="401.621" x2="401.621" y1="30.647" y2="30.647" class="j"/><line x1="358.393" x2="358.393" y1="30.113" y2="33.077" class="k"/><line x1="364.286" x2="364.286" y1="30.113" y2="33.077" class="k"/><line x1="370.179" x2="370.179" y1="30.113" y2="33.077" class="k"/><line x1="376.071" x2="376.071" y1="30.113" y2="33.077" class="k"/><line x1="381.964" x2="381.964" y1="30.113" y2="33.077" class="k"/><line x1="387.857" x2="387.857" y1="30.113" y2="33.077" class="k"/></g></g><rect width="245" height="50" x="20" y="281.5" class="l"/><text class="m" transform="translate(95.296 310.713)">Infinispan cluster</text><rect width="245" height="50" x="20" y="119" class="l"/><text class="m" transform="translate(97.436 148.213)">Keycloak cluster</text><g><text class="h" transform="translate(117.921 251.215)">Database</text><g><path d="M124.051,214.192v10.193c0,5.629,8.259,10.192,18.449,10.192s18.449-4.563,18.449-10.192V214.192" class="i"/><ellipse cx="142.5" cy="214.192" class="i" rx="18.449" ry="10.192"/></g></g><rect width="35.56" height="29.115" x="46.457" y="205.192" class="c"/><text class="n" transform="translate(45.025 216.874)">Remote<tspan x="6.71" y="12">store</tspan></text><text class="d" transform="translate(495 362.23)">Datacenter <tspan x="81.646" y="0" class="e">(site2)</tspan></text><g><line x1="695.764" x2="695.764" y1="169" y2="271.824" class="f"/><polygon points="690.777 270.365 695.764 279 700.75 270.365 690.777 270.365" class="g"/></g><g><line x1="617.5" x2="617.5" y1="168.695" y2="193.824" class="f"/><polygon points="612.514 192.365 617.5 201 622.486 192.365 612.514 192.365" class="g"/></g><rect width="245" height="50" x="495" y="281.5" class="l" transform="translate(1235 613) rotate(-180)"/><text class="m" transform="translate(570.296 310.713)">Infinispan cluster</text><rect width="245" height="50" x="495" y="119" class="l"/><text class="m" transform="translate(572.436 148.213)">Keycloak cluster</text><g><text class="h" transform="translate(592.921 251.215)">Database</text><g><path d="M599.051,214.192v10.193c0,5.629,8.259,10.192,18.449,10.192s18.449-4.563,18.449-10.192V214.192" class="i"/><ellipse cx="617.5" cy="214.192" class="i" rx="18.449" ry="10.192"/></g></g><rect width="35.56" height="29.115" x="677.984" y="205.192" class="c"/><text class="n" transform="translate(676.553 216.874)">Remote<tspan x="6.71" y="12">store</tspan></text><g><line x1="485.324" x2="483.824" y1="306.5" y2="306.5" class="o"/><line x1="480.814" x2="277.681" y1="306.5" y2="306.5" class="p"/><line x1="276.176" x2="274.676" y1="306.5" y2="306.5" class="o"/><polygon points="483.865 301.514 492.5 306.5 483.865 311.486 483.865 301.514" class="q"/><polygon points="276.135 301.514 267.5 306.5 276.135 311.486 276.135 301.514" class="q"/></g><g><line x1="588.875" x2="587.375" y1="219.752" y2="219.752" class="o"/><line x1="584.391" x2="174.116" y1="219.752" y2="219.752" class="r"/><line x1="172.624" x2="171.124" y1="219.752" y2="219.752" class="o"/><polygon points="587.416 214.766 596.051 219.752 587.416 224.739 587.416 214.766" class="q"/><polygon points="172.583 214.766 163.948 219.752 172.583 224.739 172.583 214.766" class="q"/></g><text class="n" transform="translate(308.154 298.472)">Cross-Datacenter Replication</text><text class="n" transform="translate(323.438 211.724)">Active/Active database</text></svg>