<svg xmlns="http://www.w3.org/2000/svg" xmlns:svg="http://www.w3.org/2000/svg" id="svg160" width="760" height="421.5" version="1.1" viewBox="0 0 760 421.5"><metadata id="metadata164"/><defs id="defs4"><style id="style2">.a{font-size:10px;fill:#f3f3f3;font-family:RedHatText-Regular,Red Hat Text}.b,.f,.j,.k,.o,.p,.r{fill:none}.c{fill:#e8e8e8}.d{font-size:14px}.d,.g,.h,.m,.n{fill:#151515}.d,.m{font-family:RedHatText-Bold,Red Hat Text;font-weight:700}.e,.h,.m,.n{font-size:11px}.e{font-family:LiberationMono,Liberation Mono;font-weight:400;letter-spacing:0}.f{stroke:#151515}.f,.i,.j,.k,.o,.p,.r{stroke-linecap:round;stroke-linejoin:round}.h{font-family:RedHatText-Medium,Red Hat Text;font-weight:500}.i,.l{fill:#fff}.i,.j,.k{stroke:#5b5b5b}.i,.k{stroke-width:1.5px}.j{stroke-width:2px}.n{font-family:RedHatText-Italic,Red Hat Text;font-style:italic}.o,.p,.r{stroke:#06c}.p{stroke-dasharray:3.009 3.009}.q{fill:#06c}.r{stroke-dasharray:2.984 2.984}</style></defs><title id="title6">cross-datacenter-arch</title><g id="g12"><text id="text8" class="a" transform="translate(679.802 404.517)">70_RHSSO_0320</text><rect id="rect10" width="760" height="40" y="381.5" class="b"/></g><rect id="rect14" width="285" height="282.5" x="475" y="99" class="c"/><rect id="rect16" width="285" height="282.5" y="99" class="c"/><text id="text20" class="d" transform="translate(20 362.23)">Datacenter <tspan id="tspan18" x="81.646" y="0" class="e">(site1)</tspan></text><g id="g26"><line id="line22" x1="64.236" x2="64.236" y1="169" y2="271.824" class="f"/><polygon id="polygon24" points="59.25 270.365 64.236 279 69.223 270.365 59.25 270.365" class="g"/></g><g id="g32"><line id="line28" x1="142.5" x2="142.5" y1="168.695" y2="193.824" class="f"/><polygon id="polygon30" points="137.514 192.365 142.5 201 147.486 192.365 137.514 192.365" class="g"/></g><g id="g38"><polyline id="polyline34" points="372.5 63.25 372.5 78.25 142.568 78.25 142.568 109.574" class="f"/><polygon id="polygon36" points="137.581 108.115 142.568 116.75 147.554 108.115 137.581 108.115" class="g"/></g><g id="g44"><polyline id="polyline40" points="387.5 63.25 387.5 78.25 617.432 78.25 617.432 109.574" class="f"/><polygon id="polygon42" points="612.446 108.115 617.432 116.75 622.419 108.115 612.446 108.115" class="g"/></g><g id="g66"><text id="text46" class="h" transform="translate(343.469 55.095)">Load balancer</text><g id="g64"><rect id="rect48" width="55" height="13.75" x="352.5" y="24.75" class="i"/><line id="line50" x1="401.621" x2="401.621" y1="30.647" y2="30.647" class="j"/><line id="line52" x1="358.393" x2="358.393" y1="30.113" y2="33.077" class="k"/><line id="line54" x1="364.286" x2="364.286" y1="30.113" y2="33.077" class="k"/><line id="line56" x1="370.179" x2="370.179" y1="30.113" y2="33.077" class="k"/><line id="line58" x1="376.071" x2="376.071" y1="30.113" y2="33.077" class="k"/><line id="line60" x1="381.964" x2="381.964" y1="30.113" y2="33.077" class="k"/><line id="line62" x1="387.857" x2="387.857" y1="30.113" y2="33.077" class="k"/></g></g><rect id="rect68" width="245" height="50" x="20" y="281.5" class="l"/><text id="text70" class="m" transform="translate(95.296,310.713)" style="font-weight:700;font-size:11px;font-family:RedHatText-Bold,'Red Hat Text';fill:#151515">Data Grid cluster</text><rect id="rect72" width="245" height="50" x="20" y="119" class="l"/><text id="text74" class="m" transform="translate(97.436,148.213)" style="font-weight:700;font-size:11px;font-family:RedHatText-Bold,'Red Hat Text';fill:#151515">RH SSO cluster</text><g id="g84"><text id="text76" class="h" transform="translate(117.921 251.215)">Database</text><g id="g82"><path id="path78" d="M124.051,214.192v10.193c0,5.629,8.259,10.192,18.449,10.192s18.449-4.563,18.449-10.192V214.192" class="i"/><ellipse id="ellipse80" cx="142.5" cy="214.192" class="i" rx="18.449" ry="10.192"/></g></g><rect id="rect86" width="35.56" height="29.115" x="46.457" y="205.192" class="c"/><text id="text90" class="n" transform="translate(45.025 216.874)">Remote<tspan id="tspan88" x="6.71" y="12">store</tspan></text><text id="text94" class="d" transform="translate(495 362.23)">Datacenter <tspan id="tspan92" x="81.646" y="0" class="e">(site2)</tspan></text><g id="g100"><line id="line96" x1="695.764" x2="695.764" y1="169" y2="271.824" class="f"/><polygon id="polygon98" points="690.777 270.365 695.764 279 700.75 270.365 690.777 270.365" class="g"/></g><g id="g106"><line id="line102" x1="617.5" x2="617.5" y1="168.695" y2="193.824" class="f"/><polygon id="polygon104" points="612.514 192.365 617.5 201 622.486 192.365 612.514 192.365" class="g"/></g><rect id="rect108" width="245" height="50" x="495" y="281.5" class="l" transform="translate(1235 613) rotate(-180)"/><text id="text110" class="m" transform="translate(570.296,310.713)" style="font-weight:700;font-size:11px;font-family:RedHatText-Bold,'Red Hat Text';fill:#151515">Data Grid cluster</text><rect id="rect112" width="245" height="50" x="495" y="119" class="l"/><text id="text114" class="m" transform="translate(572.436,148.213)" style="font-weight:700;font-size:11px;font-family:RedHatText-Bold,'Red Hat Text';fill:#151515">RH SSO cluster</text><g id="g124"><text id="text116" class="h" transform="translate(592.921 251.215)">Database</text><g id="g122"><path id="path118" d="M599.051,214.192v10.193c0,5.629,8.259,10.192,18.449,10.192s18.449-4.563,18.449-10.192V214.192" class="i"/><ellipse id="ellipse120" cx="617.5" cy="214.192" class="i" rx="18.449" ry="10.192"/></g></g><rect id="rect126" width="35.56" height="29.115" x="677.984" y="205.192" class="c"/><text id="text130" class="n" transform="translate(676.553 216.874)">Remote<tspan id="tspan128" x="6.71" y="12">store</tspan></text><g id="g142"><line id="line132" x1="485.324" x2="483.824" y1="306.5" y2="306.5" class="o"/><line id="line134" x1="480.814" x2="277.681" y1="306.5" y2="306.5" class="p"/><line id="line136" x1="276.176" x2="274.676" y1="306.5" y2="306.5" class="o"/><polygon id="polygon138" points="483.865 301.514 492.5 306.5 483.865 311.486 483.865 301.514" class="q"/><polygon id="polygon140" points="276.135 301.514 267.5 306.5 276.135 311.486 276.135 301.514" class="q"/></g><g id="g154"><line id="line144" x1="588.875" x2="587.375" y1="219.752" y2="219.752" class="o"/><line id="line146" x1="584.391" x2="174.116" y1="219.752" y2="219.752" class="r"/><line id="line148" x1="172.624" x2="171.124" y1="219.752" y2="219.752" class="o"/><polygon id="polygon150" points="587.416 214.766 596.051 219.752 587.416 224.739 587.416 214.766" class="q"/><polygon id="polygon152" points="172.583 214.766 163.948 219.752 172.583 224.739 172.583 214.766" class="q"/></g><text id="text156" class="n" transform="translate(308.154 298.472)">Cross-Datacenter Replication</text><text id="text158" class="n" transform="translate(323.438 211.724)">Active/Active database</text></svg>